Motion_sv05_j
version=1
nRows=8
nColumns=43
inDegrees=yes
endheader
time	pelvis_tilt	pelvis_list	pelvis_rotation	pelvis_tx	pelvis_ty	pelvis_tz	hip_flexion_r	hip_adduction_r	hip_rotation_r	knee_angle_r	ankle_angle_r	subtalar_angle_r	mtp_angle_r	hip_flexion_l	hip_adduction_l	hip_rotation_l	knee_angle_l	ankle_angle_l	subtalar_angle_l	mtp_angle_l	lumbar_extension	lumbar_bending	lumbar_rotation	neck_flexion	neck_lateral_bending	neck_rotation	arm_flex_r	arm_add_r	arm_rot_r	elbow_flex_r	pro_sup_r	wrist_flex_r	wrist_dev_r	hand_finger_flex_r	arm_flex_l	arm_add_l	arm_rot_l	elbow_flex_l	pro_sup_l	wrist_flex_l	wrist_dev_l	hand_finger_flex_l
      2.37000000	     -2.97712274	    -28.17455114	    -87.97501812	     -0.01979271	      0.97614889	     -0.44430140	     11.58516940	     -2.55332557	      0.77869018	    -78.75620943	     11.30364896	    -18.66793804	     -7.31630007	    -35.46908943	     -4.68035413	    -32.33319347	     -6.86609282	     13.48719910	     24.82308560	     11.71344445	    -41.90392661	      5.15241852	      3.27029502	    -19.92484580	     -6.24209768	     -6.92665731	    -18.34296501	     -9.36226532	    -24.89567575	     67.52434640	    111.16189179	      6.29323596	     -2.83964604	     -5.70514194	    -26.99048564	     -6.69638818	    -16.12907941	    106.71032685	    125.08217154	    -13.20591327	    -10.92488298	     11.06357577
      2.37250000	     -2.96338412	    -28.15707656	    -87.96610827	     -0.01964765	      0.97630196	     -0.44537282	     11.21190281	     -2.61289151	      0.61499369	    -78.59891292	     11.03045540	    -18.43015142	     -7.33708239	    -35.38901612	     -4.64437152	    -32.36892435	     -6.84981650	     13.39196618	     24.80418678	     11.69902726	    -41.91038429	      5.18433593	      3.26715167	    -19.86582502	     -6.19539347	     -6.98162227	    -18.23463331	     -9.48115065	    -24.79432409	     67.42907763	    111.17946472	      6.31094552	     -2.81212400	     -5.70561865	    -26.96584796	     -6.77472201	    -15.97906957	    106.67605884	    125.12659797	    -13.20410345	    -10.94192704	     11.07639162
      2.37500000	     -2.96383055	    -28.32767448	    -87.81970198	     -0.01963815	      0.97679469	     -0.44643102	     10.54372189	     -2.67419413	      0.26173879	    -78.32734662	     10.79331807	    -18.03602990	     -7.34117630	    -35.51713481	     -4.73651990	    -32.26581237	     -6.76934438	     13.18385536	     24.81956189	     11.66758436	    -42.11012566	      5.29547206	      3.19498887	    -19.84441054	     -6.17478960	     -7.08686965	    -18.16532909	     -9.50681361	    -24.68457451	     67.39061657	    111.12760293	      6.25285484	     -2.85809054	     -5.75451489	    -26.93590552	     -6.84743208	    -15.91588861	    106.65185459	    125.22383318	    -13.36776052	    -10.95525596	     11.05763915
      2.37750000	     -2.93258881	    -28.22284419	    -87.88034270	     -0.01994617	      0.97666531	     -0.44728004	     10.24471429	     -2.67682742	      0.19744205	    -78.15145656	     10.74877935	    -18.00352521	     -7.34798995	    -35.36955827	     -4.67632564	    -32.25217196	     -6.73181158	     13.18832730	     24.83148336	     11.66791242	    -42.01563787	      5.24105964	      3.26499862	    -19.80166305	     -6.18745955	     -7.08585585	    -18.15180067	     -9.49338812	    -24.65519057	     67.37609109	    111.12335079	      6.25864448	     -2.85820524	     -5.75518832	    -26.98316494	     -6.84399516	    -15.86575936	    106.68961930	    125.23207187	    -13.36892713	    -10.96823883	     11.05981361
      2.38000000	     -2.89763823	    -28.12507259	    -87.95069412	     -0.02015087	      0.97658818	     -0.44815721	      9.92787788	     -2.71054659	      0.11012227	    -77.93132389	     10.67110415	    -17.94597382	     -7.36119335	    -35.22149914	     -4.60405707	    -32.25206084	     -6.71611123	     13.18496867	     24.84238324	     11.66753162	    -41.93179171	      5.20273546	      3.33017735	    -19.76039371	     -6.19683885	     -7.09187916	    -18.11971723	     -9.52304824	    -24.61157750	     67.35107866	    111.11568929	      6.26747860	     -2.86316909	     -5.75705730	    -27.02422762	     -6.87457071	    -15.81399562	    106.69797689	    125.24601971	    -13.36858702	    -10.97611108	     11.06026829
      2.38250000	     -2.89617971	    -28.45558525	    -87.63888817	     -0.01957410	      0.97739735	     -0.44905966	      8.95472351	     -2.84229997	     -0.43812963	    -77.49186162	     10.49235453	    -17.51741926	     -7.44767351	    -35.49132819	     -4.78902571	    -32.14807941	     -6.70322762	     12.97361134	     24.98279084	     11.65823432	    -42.25943513	      5.45563017	      3.13303751	    -19.78389046	     -6.19201202	     -7.23481584	    -18.03881254	     -9.61046424	    -24.46849813	     67.18103274	    110.83525992	      6.14997476	     -3.08560117	     -5.89553100	    -27.01967154	     -6.95100920	    -15.64394674	    106.66586861	    125.43530229	    -13.63374649	    -11.00162801	     10.93894188
      2.38500000	     -2.86421783	    -28.34183699	    -87.72722183	     -0.01996907	      0.97723945	     -0.44992965	      8.66182817	     -2.86645401	     -0.52339683	    -77.26954374	     10.44546346	    -17.49141851	     -7.45989737	    -35.33212709	     -4.72260270	    -32.14894546	     -6.67321117	     12.98625384	     24.99360797	     11.66134586	    -42.16579717	      5.38813426	      3.22162867	    -19.73028570	     -6.20475662	     -7.22919942	    -18.02679375	     -9.62426256	    -24.39675970	     67.18259392	    110.83141927	      6.17061773	     -3.08379256	     -5.89285863	    -27.03609148	     -6.97269322	    -15.61322648	    106.66998358	    125.44558957	    -13.62912275	    -11.00501381	     10.93941226
      2.38750000	     -2.82158185	    -28.23804023	    -87.80025298	     -0.02014877	      0.97714393	     -0.45081558	      8.33573886	     -2.92110900	     -0.61519324	    -76.99549141	     10.37235973	    -17.44679406	     -7.47864088	    -35.17065986	     -4.63871366	    -32.17352207	     -6.67752183	     12.99264328	     25.00190242	     11.66515952	    -42.08063597	      5.34500766	      3.30472120	    -19.68085005	     -6.21504507	     -7.23148983	    -17.99437272	     -9.68538268	    -24.33268196	     67.15555488	    110.82585593	      6.18896286	     -3.07878756	     -5.89316003	    -27.05919412	     -6.99370233	    -15.54761302	    106.66271033	    125.46396978	    -13.61699181	    -11.01188359	     10.93989693
